<svg width="810" height="32" viewBox="0 0 810 32" fill="none" xmlns="http://www.w3.org/2000/svg">
<path d="M41.9942 16.8401C41.9942 21.444 38.3926 24.8365 33.9726 24.8365C29.5526 24.8365 25.9509 21.444 25.9509 16.8401C25.9509 12.2038 29.5526 8.84375 33.9726 8.84375C38.3926 8.84375 41.9942 12.2038 41.9942 16.8401ZM38.4827 16.8401C38.4827 13.9632 36.3953 11.9947 33.9726 11.9947C31.5499 11.9947 29.4624 13.9632 29.4624 16.8401C29.4624 19.6883 31.5499 21.6856 33.9726 21.6856C36.3953 21.6856 38.4827 19.6847 38.4827 16.8401Z" fill="#787878"/>
<path d="M59.2993 16.8401C59.2993 21.444 55.6977 24.8365 51.2777 24.8365C46.8577 24.8365 43.256 21.444 43.256 16.8401C43.256 12.2074 46.8577 8.84375 51.2777 8.84375C55.6977 8.84375 59.2993 12.2038 59.2993 16.8401ZM55.7878 16.8401C55.7878 13.9632 53.7004 11.9947 51.2777 11.9947C48.855 11.9947 46.7675 13.9632 46.7675 16.8401C46.7675 19.6883 48.855 21.6856 51.2777 21.6856C53.7004 21.6856 55.7878 19.6847 55.7878 16.8401Z" fill="#787878"/>
<path d="M75.8834 9.32685V23.6829C75.8834 29.5882 72.4007 32.0001 68.2835 32.0001C64.4079 32.0001 62.0753 29.408 61.1957 27.2881L64.2529 26.0154C64.7973 27.3169 66.1312 28.8528 68.2799 28.8528C70.9153 28.8528 72.5485 27.2268 72.5485 24.166V23.0159H72.4259C71.64 23.9857 70.1258 24.8329 68.215 24.8329C64.2168 24.8329 60.5539 21.3503 60.5539 16.869C60.5539 12.3552 64.2168 8.84375 68.215 8.84375C70.1222 8.84375 71.6364 9.69098 72.4259 10.6319H72.5485V9.33046H75.8834V9.32685ZM72.7973 16.869C72.7973 14.0533 70.919 11.9947 68.5287 11.9947C66.106 11.9947 64.0762 14.0533 64.0762 16.869C64.0762 19.6558 66.106 21.6856 68.5287 21.6856C70.919 21.6856 72.7973 19.6558 72.7973 16.869Z" fill="#787878"/>
<path d="M81.3813 0.912109V24.3461H77.9563V0.912109H81.3813Z" fill="#787878"/>
<path d="M94.7279 19.4717L97.4534 21.2887C96.5738 22.5902 94.4539 24.8326 90.791 24.8326C86.2484 24.8326 82.8559 21.3211 82.8559 16.8362C82.8559 12.0809 86.2772 8.83984 90.398 8.83984C94.5476 8.83984 96.5774 12.1422 97.2407 13.9268L97.6049 14.8353L86.9154 19.2626C87.7337 20.8669 89.0064 21.6853 90.791 21.6853C92.5792 21.6853 93.8194 20.8056 94.7279 19.4717ZM86.3385 16.5947L93.4841 13.6276C93.0911 12.6289 91.9086 11.9331 90.517 11.9331C88.7324 11.9331 86.2484 13.5086 86.3385 16.5947Z" fill="#787878"/>
<path d="M12.9866 14.7598V11.3673H24.4187C24.5305 11.9585 24.5882 12.658 24.5882 13.4151C24.5882 15.9603 23.8924 19.1077 21.6499 21.3502C19.4688 23.6215 16.6819 24.8328 12.9902 24.8328C6.14744 24.8328 0.393494 19.2591 0.393494 12.4164C0.393494 5.57368 6.14744 0 12.9902 0C16.7756 0 19.4724 1.48535 21.4985 3.42136L19.1046 5.81523C17.6517 4.45246 15.6833 3.39252 12.9866 3.39252C7.98971 3.39252 4.08164 7.41956 4.08164 12.4164C4.08164 17.4132 7.98971 21.4403 12.9866 21.4403C16.2277 21.4403 18.0735 20.1388 19.256 18.9563C20.215 17.9973 20.8459 16.6273 21.0947 14.7562L12.9866 14.7598Z" fill="#787878"/>
<path d="M166.312 15.3148C166.16 15.1233 165.878 15.0808 165.683 15.2297C165.618 15.2722 165.575 15.3361 165.553 15.3999L161.651 23.0806C161.543 23.3146 161.629 23.5912 161.868 23.6976C161.933 23.7189 161.998 23.7401 162.085 23.7401H167.526C167.699 23.7401 167.872 23.655 167.938 23.4848C169.086 21.1019 168.371 17.485 166.312 15.3148Z" fill="#787878"/>
<path d="M169.34 7.66965C167.306 10.7994 167.06 14.7503 168.714 18.102L171.419 23.4735C171.508 23.6289 171.664 23.7399 171.843 23.7399H177.453C177.721 23.7399 177.945 23.5179 177.945 23.2516C177.945 23.185 177.922 23.0962 177.9 23.0296C177.9 23.0296 170.346 8.02479 170.167 7.64745C170.055 7.42549 169.787 7.3367 169.563 7.44768C169.452 7.51427 169.385 7.58086 169.34 7.66965Z" fill="#787878"/>
<path fill-rule="evenodd" clip-rule="evenodd" d="M246.723 20.1837C246.723 20.188 246.723 20.1923 246.723 20.1966L236.491 14.2388C236.491 14.226 236.491 14.2132 236.491 14.2004L246.723 20.1837ZM246.723 20.1837L246.745 20.1966C246.745 22.8199 245.252 24.6 241.541 24.6C238.906 24.6 237.501 23.9676 236.425 23.4054V20.0092C238.006 20.9695 239.784 21.4848 241.585 21.5082C243.078 21.5082 243.517 21.0163 243.517 20.2903C243.517 19.5407 243.078 19.166 240.948 18.6975C237.413 17.9526 236.502 16.3054 236.491 14.2388L236.425 14.2004C236.425 11.5771 238.203 9.98438 241.651 9.98438C243.166 9.93753 244.659 10.2654 246.042 10.9447V14.2238C244.615 13.5212 243.1 13.0293 241.563 13.0293C240.289 13.0293 239.609 13.3806 239.609 14.2004C239.609 14.8328 240.092 15.3013 242.002 15.7463C245.487 16.5413 246.719 17.7097 246.723 20.1837Z" fill="#787878"/>
<path d="M285.445 9.97998V23.74H288.386V13.2551L289.618 16.0298L293.791 23.74H297.485V9.97998H294.543V18.8728L293.426 16.28L290.074 9.97998H285.445Z" fill="#787878"/>
<rect x="263.085" y="9.97998" width="3.44" height="13.76" fill="#787878"/>
<path d="M260.505 20.1966C260.505 17.7138 259.178 16.5427 255.412 15.7463C253.352 15.3013 252.83 14.8328 252.83 14.2004C252.83 13.3806 253.565 13.0293 254.939 13.0293C256.597 13.0293 258.231 13.5212 259.771 14.2238V10.9447C258.278 10.2654 256.668 9.93753 255.033 9.98438C251.315 9.98438 249.396 11.5771 249.396 14.2004C249.396 16.285 250.367 17.948 254.204 18.6975C256.502 19.166 256.976 19.5407 256.976 20.2903C256.976 21.0163 256.502 21.5082 254.891 21.5082C252.949 21.4848 251.03 20.9695 249.325 20.0092V23.4054C250.485 23.9676 252.001 24.6 254.844 24.6C258.918 24.5766 260.505 22.8199 260.505 20.1966Z" fill="#787878"/>
<path d="M211.485 9.97998V23.74H218.185L219.225 20.7605H214.766V9.97998H211.485Z" fill="#787878"/>
<path d="M198.585 9.97998V12.9594H202.062V23.74H205.207V12.9594H208.905V9.97998H198.585Z" fill="#787878"/>
<path fill-rule="evenodd" clip-rule="evenodd" d="M189.6 9.97998H193.81L198.585 23.74H194.941L194.262 21.4201C192.587 21.9205 190.822 21.9205 189.147 21.4201L188.469 23.74H184.825L189.6 9.97998ZM189.94 18.6909C190.528 18.8501 191.116 18.941 191.705 18.941C192.293 18.941 192.882 18.8728 193.47 18.6909L191.705 12.6865L189.94 18.6909Z" fill="#787878"/>
<path fill-rule="evenodd" clip-rule="evenodd" d="M224.86 9.97998H229.07L233.845 23.74H230.201L229.522 21.4201C227.848 21.9205 226.082 21.9205 224.408 21.4201L223.729 23.74H220.085L224.86 9.97998ZM225.2 18.6909C225.788 18.8501 226.376 18.941 226.965 18.941C227.553 18.941 228.142 18.8728 228.73 18.6909L226.965 12.6865L225.2 18.6909Z" fill="#787878"/>
<path fill-rule="evenodd" clip-rule="evenodd" d="M273.88 9.97998H278.09L282.865 23.74H279.221L278.542 21.4201C276.867 21.9205 275.102 21.9205 273.427 21.4201L272.749 23.74H269.105L273.88 9.97998ZM274.22 18.6909C274.808 18.8501 275.396 18.941 275.985 18.941C276.573 18.941 277.162 18.8728 277.75 18.6909L275.985 12.6865L274.22 18.6909Z" fill="#787878"/>
<path d="M377.098 24.0528C372.652 24.0528 369.049 20.4478 369.049 16.001C369.049 11.5539 372.652 7.95231 377.098 7.95231C378.665 7.95231 380.128 8.39923 381.364 9.17392L377.098 16.001L385.129 11.3636C384.257 9.97334 383.005 8.7754 381.492 7.86636C379.566 6.71348 376.888 6 373.926 6C369.7 6 365.994 7.53538 363.927 9.83469C362.396 11.5344 361.485 13.6737 361.485 16.0008C361.485 18.3297 362.396 20.4705 363.927 22.1714C365.999 24.4736 369.651 26 373.806 26C377.961 26 381.612 24.4724 383.685 22.1714C383.799 22.0447 383.909 21.9168 384.013 21.7841L383.7 20.6103C382.243 22.6902 379.829 24.0528 377.098 24.0528Z" fill="#787878"/>
<path d="M403.725 25.5158L400.354 12.9411C399.813 10.9091 397.962 9.41553 395.759 9.41553C395.188 9.41553 394.64 9.51761 394.132 9.7024L386.876 12.3412H394.339L395.615 17.1043C394.378 16.0395 392.766 15.3916 391.002 15.3916C387.498 15.3916 384.662 17.7393 384.662 20.6353C384.662 23.5316 387.498 25.8828 391.002 25.8828C393.524 25.8828 395.755 24.648 397.13 22.7511L397.87 25.5158H403.725ZM393.443 23.5627C391.827 23.5627 390.517 22.2538 390.517 20.6353C390.517 19.0193 391.827 17.7092 393.443 17.7092C395.059 17.7092 396.37 19.0193 396.37 20.6353C396.37 22.2538 395.059 23.5627 393.443 23.5627Z" fill="#787878"/>
<path d="M417.469 9.41797C417.026 9.41797 416.608 9.51575 416.235 9.69086L411.576 11.8623C411.345 10.4752 410.14 9.41797 408.687 9.41797C408.247 9.41797 407.827 9.51575 407.449 9.69086L401.761 12.3415H405.761V25.5162H411.615V13.8072C411.615 12.9993 412.269 12.3416 413.079 12.3416C413.885 12.3416 414.544 12.9993 414.544 13.8072V25.5162H420.396V12.3415C420.396 10.7258 419.085 9.41809 417.469 9.41809" fill="#787878"/>
<path d="M439.421 17.7094C439.421 22.2888 435.709 26.0002 431.131 26.0002C426.549 26.0002 422.836 22.2888 422.836 17.7094C422.836 13.1312 426.549 9.41797 431.131 9.41797C435.709 9.41797 439.421 13.1313 439.421 17.7094ZM431.474 11.9343C431.214 10.9587 430.211 10.3796 429.235 10.6419C428.261 10.903 427.679 11.9065 427.941 12.882L430.784 23.4841C431.047 24.4606 432.048 25.0392 433.023 24.781C433.999 24.5168 434.578 23.514 434.317 22.5386L431.474 11.9343Z" fill="#787878"/>
<path d="M454.184 9.41797C453.74 9.41797 453.32 9.51575 452.941 9.69086L448.286 11.8623C448.057 10.4752 446.852 9.41797 445.398 9.41797C444.958 9.41797 444.539 9.51575 444.16 9.69086L438.474 12.3415H442.472V25.5162H448.326V13.8072C448.326 12.9993 448.981 12.3416 449.791 12.3416C450.599 12.3416 451.253 12.9993 451.253 13.8072V25.5162H457.11V12.3415C457.11 10.7258 455.798 9.41809 454.184 9.41809" fill="#787878"/>
<path fill-rule="evenodd" clip-rule="evenodd" d="M594.622 21.0075C594.622 21.2654 594.598 21.5331 594.53 21.7647C594.246 22.7331 593.268 23.5533 592.048 23.5533C591.031 23.5533 590.219 22.9579 590.219 21.7015C590.219 19.7797 592.279 19.2489 594.622 19.2617V21.0075ZM598.296 17.6595C598.296 14.4889 596.978 11.7002 592.528 11.7002C590.244 11.7002 588.429 12.3596 587.44 12.9468L588.164 15.4949C589.068 14.9076 590.51 14.4219 591.874 14.4219C594.133 14.4167 594.502 15.737 594.502 16.5828V16.7828C589.579 16.7745 586.47 18.5264 586.47 22.0962C586.47 24.2766 588.055 26.3202 590.807 26.3202C592.502 26.3202 593.918 25.6247 594.767 24.512H594.852C594.852 24.512 595.413 26.9277 598.51 26.0052C598.349 24.9984 598.296 23.924 598.296 22.6338V17.6595Z" fill="#787878"/>
<path fill-rule="evenodd" clip-rule="evenodd" d="M521.11 8.26025C521.11 8.26025 524.301 21.2655 524.811 23.3766C525.405 25.8406 526.477 26.7464 529.566 26.1365L531.558 18.0732C532.064 16.0689 532.402 14.642 532.727 12.6045H532.784C533.011 14.6629 533.337 16.0754 533.753 18.0797C533.753 18.0797 534.564 21.7396 534.979 23.6624C535.397 25.5837 536.555 26.7962 539.58 26.1365L544.33 8.26025H540.496L538.874 15.9887C538.437 18.2377 538.044 19.9966 537.738 22.0551H537.684C537.406 20.0168 537.055 18.3287 536.61 16.1374L534.923 8.26025H530.927L529.122 15.9382C528.611 18.2716 528.132 20.1561 527.827 22.1431H527.773C527.461 20.2716 527.045 17.9036 526.597 15.6452C526.597 15.6452 525.523 10.1541 525.147 8.26025" fill="#787878"/>
<path fill-rule="evenodd" clip-rule="evenodd" d="M551.62 21.0075C551.62 21.2654 551.599 21.5331 551.528 21.7647C551.244 22.7331 550.268 23.5533 549.047 23.5533C548.029 23.5533 547.22 22.9579 547.22 21.7015C547.22 19.7797 549.278 19.2489 551.62 19.2617V21.0075ZM555.294 17.6595C555.294 14.4889 553.977 11.7002 549.527 11.7002C547.241 11.7002 545.428 12.3596 544.437 12.9468L545.163 15.4949C546.067 14.9076 547.508 14.4219 548.873 14.4219C551.132 14.4167 551.501 15.737 551.501 16.5828V16.7828C546.579 16.7745 543.47 18.5264 543.47 22.0962C543.47 24.2766 545.053 26.3202 547.806 26.3202C549.499 26.3202 550.916 25.6247 551.765 24.512H551.848C551.848 24.512 552.411 26.9277 555.51 26.0052C555.346 24.9984 555.294 23.924 555.294 22.6338V17.6595Z" fill="#787878"/>
<path fill-rule="evenodd" clip-rule="evenodd" d="M561.53 22.4851V8.26025H558.09V26.3203H561.53" fill="#787878"/>
<path fill-rule="evenodd" clip-rule="evenodd" d="M610.55 8.26025V21.3634C610.55 23.1667 610.899 24.4337 611.647 25.2074C612.299 25.8821 613.374 26.3203 614.662 26.3203C615.76 26.3203 616.838 26.118 617.345 25.9338L617.297 23.1151C616.919 23.2054 616.483 23.2779 615.889 23.2779C614.627 23.2779 614.204 22.492 614.204 20.8693V15.8587H617.43V12.4599H614.204V8.26025" fill="#787878"/>
<path fill-rule="evenodd" clip-rule="evenodd" d="M601.09 12.8638V26.3201H604.774V19.4292C604.774 19.0575 604.797 18.7327 604.854 18.4362C605.128 16.9927 606.211 16.0713 607.769 16.0713C608.196 16.0713 608.502 16.1176 608.83 16.166V12.6432C608.554 12.5854 608.365 12.5601 608.02 12.5601C606.643 12.5601 605.079 13.4626 604.423 15.4016H604.322V12.8638" fill="#787878"/>
<path fill-rule="evenodd" clip-rule="evenodd" d="M564.11 12.8638V26.3201H567.868V18.4283C567.868 18.0587 567.911 17.666 568.045 17.3275C568.357 16.5327 569.116 15.6019 570.328 15.6019C571.844 15.6019 572.554 16.8488 572.554 18.651V26.3201H576.307V18.3328C576.307 17.9799 576.357 17.5553 576.465 17.2415C576.772 16.3374 577.591 15.6019 578.719 15.6019C580.257 15.6019 580.994 16.8285 580.994 18.9468V26.3201H584.75V18.395C584.75 14.2141 582.569 12.5601 580.108 12.5601C579.017 12.5601 578.156 12.8255 577.379 13.2905C576.724 13.6818 576.139 14.2358 575.627 14.9662H575.572C574.977 13.5162 573.581 12.5601 571.76 12.5601C569.422 12.5601 568.372 13.7129 567.733 14.6921H567.677V12.8638" fill="#787878"/>
<path fill-rule="evenodd" clip-rule="evenodd" d="M637.637 10.84C638.372 10.84 638.98 10.4665 639.062 9.98457L639.79 1.96301C639.79 1.17077 638.837 0.52002 637.639 0.52002C636.443 0.52002 635.49 1.17077 635.49 1.96301L636.217 9.98457C636.297 10.4665 636.905 10.84 637.642 10.84" fill="#787878"/>
<path fill-rule="evenodd" clip-rule="evenodd" d="M632.66 13.4031C633.014 12.7362 632.987 11.9845 632.612 11.6522L626.097 6.68863C625.42 6.26459 624.404 6.77652 623.826 7.86283C623.25 8.94682 623.35 10.1588 624.027 10.5844L631.24 14.2319C631.694 14.4146 632.308 14.0646 632.662 13.4" fill="#787878"/>
<path fill-rule="evenodd" clip-rule="evenodd" d="M641.757 13.4C642.113 14.0646 642.725 14.4146 643.177 14.2319L650.393 10.5843C651.072 10.1587 651.169 8.94675 650.591 7.86274C650.015 6.77719 648.999 6.26449 648.321 6.68853L641.805 11.6521C641.433 11.9844 641.408 12.7362 641.759 13.4031" fill="#787878"/>
<path fill-rule="evenodd" clip-rule="evenodd" d="M637.637 21.1602C638.372 21.1602 638.98 21.5336 639.062 22.0155L639.79 30.0359C639.79 30.8281 638.837 31.4802 637.639 31.4802C636.443 31.4802 635.49 30.8281 635.49 30.0359L636.217 22.0155C636.297 21.5336 636.905 21.1602 637.642 21.1602" fill="#787878"/>
<path fill-rule="evenodd" clip-rule="evenodd" d="M641.757 17.7405C642.113 17.0729 642.725 16.726 643.177 16.9079L650.393 20.5545C651.072 20.9808 651.169 22.1927 650.591 23.2782C650.015 24.3614 648.999 24.8756 648.321 24.4516L641.805 19.4883C641.433 19.1544 641.408 18.4035 641.759 17.7375" fill="#787878"/>
<path fill-rule="evenodd" clip-rule="evenodd" d="M632.66 17.7385C633.014 18.4047 632.987 19.1549 632.612 19.4895L626.097 24.4512C625.42 24.8753 624.404 24.3633 623.826 23.28C623.25 22.1944 623.35 20.9807 624.027 20.5543L631.24 16.9088C631.694 16.7246 632.308 17.0731 632.662 17.7408" fill="#787878"/>
<path fill-rule="evenodd" clip-rule="evenodd" d="M773.853 23.7718C768.295 28.242 760.237 30.6196 753.299 30.6196C743.574 30.6196 734.818 26.7022 728.19 20.1805C727.67 19.6684 728.134 18.9686 728.759 19.3654C735.909 23.8999 744.75 26.6308 753.882 26.6308C760.043 26.6308 766.814 25.2374 773.045 22.3572C773.985 21.9224 774.773 23.0321 773.853 23.7718Z" fill="#787878"/>
<path fill-rule="evenodd" clip-rule="evenodd" d="M776.508 21.6408C775.779 20.773 771.695 21.2295 769.86 21.4337C769.305 21.4958 769.218 21.0445 769.719 20.7167C772.977 18.5868 778.316 19.202 778.936 19.9145C779.562 20.6341 778.773 25.6158 775.719 27.9932C775.249 28.359 774.803 28.1641 775.011 27.6807C775.698 26.0841 777.236 22.5086 776.508 21.6408Z" fill="#787878"/>
<path fill-rule="evenodd" clip-rule="evenodd" d="M769.155 4.97414V2.75514C769.157 2.4174 769.416 2.19224 769.729 2.19292L779.87 2.19189C780.194 2.19189 780.454 2.42358 780.455 2.75239L780.454 4.65562C780.452 4.97483 780.178 5.39152 779.691 6.05258L774.438 13.4084C776.388 13.3638 778.45 13.6497 780.222 14.6265C780.621 14.8466 780.729 15.1733 780.76 15.4929V17.8605C780.76 18.1869 780.396 18.5645 780.014 18.3681C776.892 16.7645 772.75 16.5892 769.299 18.3874C768.946 18.5717 768.577 18.1996 768.577 17.8732V15.6223C768.577 15.2622 768.584 14.6461 768.954 14.0969L775.04 5.53396L769.741 5.53293C769.417 5.53293 769.157 5.30639 769.155 4.97414Z" fill="#787878"/>
<path fill-rule="evenodd" clip-rule="evenodd" d="M734.626 18.4363H731.732C731.457 18.4182 731.236 18.2104 731.214 17.9456L731.216 3.04265C731.216 2.74457 731.466 2.50611 731.775 2.50611L734.47 2.50545C734.752 2.51995 734.978 2.73403 734.996 3.00576V4.95167H735.05C735.753 3.06999 737.076 2.19189 738.859 2.19189C740.669 2.19189 741.804 3.06999 742.614 4.95167C743.317 3.06999 744.91 2.19189 746.612 2.19189C747.828 2.19189 749.152 2.69352 749.962 3.8226C750.881 5.07683 750.692 6.89593 750.692 8.49535L750.689 17.8998C750.689 18.1975 750.439 18.4363 750.131 18.4363H747.241C746.95 18.4176 746.721 18.1867 746.721 17.9011L746.72 10.0006C746.72 9.37344 746.775 7.80532 746.639 7.20949C746.423 6.20591 745.775 5.92364 744.938 5.92364C744.235 5.92364 743.506 6.39398 743.209 7.14691C742.911 7.89952 742.939 9.15375 742.939 10.0006V17.8998C742.939 18.1975 742.689 18.4363 742.38 18.4363H739.49C739.199 18.4176 738.97 18.1867 738.97 17.9011L738.967 10.0006C738.967 8.33857 739.237 5.89235 737.184 5.89235C735.104 5.89235 735.185 8.27566 735.185 10.0006L735.184 17.8998C735.185 18.1975 734.934 18.4363 734.626 18.4363Z" fill="#787878"/>
<path fill-rule="evenodd" clip-rule="evenodd" d="M789.668 4.51348C787.555 4.51348 787.422 7.51747 787.422 9.39098C787.422 11.2648 787.395 15.2707 789.641 15.2707C791.861 15.2707 791.967 12.0401 791.967 10.0695C791.967 8.77756 791.914 7.22705 791.54 5.99919C791.218 4.93317 790.577 4.51348 789.668 4.51348ZM789.641 1.37988C793.893 1.37988 796.192 5.1917 796.192 10.0373C796.192 14.7211 793.653 18.4366 789.641 18.4366C785.47 18.4366 783.197 14.6244 783.197 9.87582C783.197 5.09467 785.496 1.37988 789.641 1.37988Z" fill="#787878"/>
<path fill-rule="evenodd" clip-rule="evenodd" d="M801.309 18.4363H798.354C798.057 18.4176 797.821 18.1867 797.821 17.9011L797.817 2.99259C797.842 2.7202 798.088 2.50611 798.386 2.50611L801.138 2.50545C801.397 2.5183 801.61 2.69155 801.665 2.92276V5.20232H801.721C802.552 3.16386 803.714 2.19189 805.763 2.19189C807.092 2.19189 808.394 2.66223 809.224 3.94809C810 5.13974 810 7.14691 810 8.58922V17.9667C809.966 18.2311 809.724 18.4363 809.431 18.4363H806.458C806.183 18.4189 805.962 18.2216 805.929 17.9667V9.87507C805.929 8.24437 806.123 5.86106 804.074 5.86106C803.354 5.86106 802.69 6.3314 802.358 7.05271C801.943 7.9621 801.887 8.87148 801.887 9.87507V17.8998C801.881 18.1975 801.625 18.4363 801.309 18.4363Z" fill="#787878"/>
<path fill-rule="evenodd" clip-rule="evenodd" d="M765.237 18.0376C765.042 18.2125 764.761 18.2242 764.541 18.1061C763.562 17.2921 763.387 16.9158 762.852 16.1413C761.235 17.7901 760.09 18.2844 757.996 18.2844C755.516 18.2844 753.586 16.7526 753.586 13.6891C753.586 11.2955 754.881 9.6681 756.728 8.87012C758.326 8.16779 760.558 8.04036 762.267 7.84873V7.46579C762.267 6.76379 762.322 5.93403 761.909 5.32768C761.55 4.78522 760.861 4.56181 760.255 4.56181C759.132 4.56181 758.133 5.13805 757.887 6.33236C757.836 6.5979 757.643 6.86078 757.376 6.87416L754.52 6.56513C754.28 6.51061 754.012 6.31697 754.081 5.94875C754.737 2.48156 757.865 1.43408 760.669 1.43408C762.101 1.43408 763.975 1.81702 765.105 2.90229C766.538 4.24275 766.4 6.02968 766.4 7.97648V12.5701C766.4 13.9517 766.974 14.558 767.512 15.3025C767.7 15.5707 767.743 15.8898 767.503 16.0858C766.901 16.5904 765.832 17.5202 765.243 18.0439L765.237 18.0376ZM762.267 10.8487C762.267 11.9978 762.294 12.955 761.716 13.9764C761.247 14.8062 760.503 15.3165 759.676 15.3165C758.547 15.3165 757.885 14.4547 757.885 13.1784C757.885 10.6674 760.136 10.2106 762.267 10.2106V10.8487Z" fill="#787878"/>
<path fill-rule="evenodd" clip-rule="evenodd" d="M726.62 18.0376C726.425 18.2125 726.144 18.2242 725.924 18.1061C724.946 17.2921 724.77 16.9158 724.235 16.1413C722.619 17.7901 721.473 18.2844 719.379 18.2844C716.899 18.2844 714.97 16.7526 714.97 13.6891C714.97 11.2955 716.265 9.6681 718.111 8.87012C719.71 8.16779 721.942 8.04036 723.65 7.84873V7.46579C723.65 6.76379 723.706 5.93403 723.292 5.32768C722.934 4.78522 722.245 4.56181 721.639 4.56181C720.515 4.56181 719.516 5.13805 719.271 6.33236C719.22 6.5979 719.027 6.86078 718.759 6.87416L715.904 6.56513C715.663 6.51061 715.395 6.31697 715.465 5.94875C716.12 2.48156 719.249 1.43408 722.052 1.43408C723.485 1.43408 725.359 1.81702 726.489 2.90229C727.922 4.24275 727.784 6.02968 727.784 7.97648V12.5701C727.784 13.9517 728.357 14.558 728.896 15.3025C729.084 15.5707 729.126 15.8898 728.886 16.0858C728.285 16.5904 727.215 17.5202 726.627 18.0439L726.62 18.0376ZM723.65 10.8487C723.65 11.9978 723.678 12.955 723.099 13.9764C722.631 14.8062 721.887 15.3165 721.06 15.3165C719.93 15.3165 719.269 14.4547 719.269 13.1784C719.269 10.6674 721.52 10.2106 723.65 10.2106V10.8487Z" fill="#787878"/>
</svg>
