<svg width="333" height="22" viewBox="0 0 333 22" fill="none" xmlns="http://www.w3.org/2000/svg">
<path d="M47.2951 11.5781C47.2951 14.7433 44.819 17.0756 41.7803 17.0756C38.7415 17.0756 36.2654 14.7433 36.2654 11.5781C36.2654 8.39062 38.7415 6.08057 41.7803 6.08057C44.819 6.08057 47.2951 8.39062 47.2951 11.5781ZM44.881 11.5781C44.881 9.60017 43.4459 8.24686 41.7803 8.24686C40.1146 8.24686 38.6795 9.60017 38.6795 11.5781C38.6795 13.5362 40.1146 14.9093 41.7803 14.9093C43.4459 14.9093 44.881 13.5337 44.881 11.5781Z" fill="#787878"/>
<path d="M59.193 11.5781C59.193 14.7433 56.7168 17.0756 53.6781 17.0756C50.6393 17.0756 48.1632 14.7433 48.1632 11.5781C48.1632 8.39309 50.6393 6.08057 53.6781 6.08057C56.7168 6.08057 59.193 8.39062 59.193 11.5781ZM56.7788 11.5781C56.7788 9.60017 55.3437 8.24686 53.6781 8.24686C52.0125 8.24686 50.5774 9.60017 50.5774 11.5781C50.5774 13.5362 52.0125 14.9093 53.6781 14.9093C55.3437 14.9093 56.7788 13.5337 56.7788 11.5781Z" fill="#787878"/>
<path d="M70.5938 6.4127V16.2825C70.5938 20.3424 68.1995 22.0006 65.3689 22.0006C62.7044 22.0006 61.1008 20.2185 60.496 18.7611L62.5978 17.8861C62.9721 18.7809 63.8892 19.8368 65.3664 19.8368C67.1783 19.8368 68.3011 18.7189 68.3011 16.6146V15.8239H68.2168C67.6765 16.4907 66.6355 17.0731 65.3218 17.0731C62.5731 17.0731 60.0548 14.6788 60.0548 11.5979C60.0548 8.49472 62.5731 6.08057 65.3218 6.08057C66.633 6.08057 67.674 6.66304 68.2168 7.30995H68.3011V6.41518H70.5938V6.4127ZM68.4721 11.5979C68.4721 9.66213 67.1808 8.24686 65.5375 8.24686C63.8718 8.24686 62.4764 9.66213 62.4764 11.5979C62.4764 13.5139 63.8718 14.9093 65.5375 14.9093C67.1808 14.9093 68.4721 13.5139 68.4721 11.5979Z" fill="#787878"/>
<path d="M74.3744 0.62793V16.7388H72.0198V0.62793H74.3744Z" fill="#787878"/>
<path d="M83.5495 13.388L85.4233 14.6372C84.8185 15.532 83.3611 17.0737 80.8428 17.0737C77.7198 17.0737 75.3875 14.6595 75.3875 11.5761C75.3875 8.30687 77.7396 6.07861 80.5727 6.07861C83.4255 6.07861 84.821 8.34901 85.277 9.57591L85.5274 10.2005L78.1784 13.2442C78.741 14.3472 79.6159 14.9098 80.8428 14.9098C82.0722 14.9098 82.9249 14.3051 83.5495 13.388ZM77.7818 11.4101L82.6943 9.37019C82.4242 8.68362 81.6112 8.20525 80.6545 8.20525C79.4276 8.20525 77.7198 9.28839 77.7818 11.4101Z" fill="#787878"/>
<path d="M27.3524 10.1483V7.81598H35.2121C35.2889 8.22247 35.3285 8.70332 35.3285 9.22382C35.3285 10.9737 34.8502 13.1375 33.3085 14.6792C31.8089 16.2407 29.893 17.0735 27.3549 17.0735C22.6505 17.0735 18.6947 13.2416 18.6947 8.53725C18.6947 3.83288 22.6505 0.000976562 27.3549 0.000976562C29.9574 0.000976562 31.8114 1.02216 33.2044 2.35316L31.5586 3.99895C30.5597 3.06204 29.2064 2.33333 27.3524 2.33333C23.9171 2.33333 21.2303 5.10192 21.2303 8.53725C21.2303 11.9726 23.9171 14.7412 27.3524 14.7412C29.5807 14.7412 30.8497 13.8464 31.6627 13.0334C32.322 12.3741 32.7558 11.4323 32.9268 10.1459L27.3524 10.1483Z" fill="#787878"/>
<path d="M113.14 10.4749C113.023 10.3279 112.807 10.2953 112.657 10.4096C112.607 10.4422 112.574 10.4912 112.557 10.5402L109.563 16.4346C109.48 16.6142 109.546 16.8265 109.729 16.9081C109.779 16.9244 109.829 16.9408 109.896 16.9408H114.071C114.204 16.9408 114.337 16.8754 114.387 16.7448C115.269 14.9161 114.72 12.1403 113.14 10.4749Z" fill="#787878"/>
<path d="M115.463 4.60789C113.902 7.00973 113.714 10.0418 114.983 12.614L117.058 16.7363C117.127 16.8556 117.247 16.9407 117.384 16.9407H121.69C121.895 16.9407 122.067 16.7704 122.067 16.566C122.067 16.5149 122.05 16.4468 122.033 16.3956C122.033 16.3956 116.235 4.88044 116.098 4.59086C116.012 4.42051 115.806 4.35237 115.635 4.43755C115.549 4.48865 115.498 4.53975 115.463 4.60789Z" fill="#787878"/>
<path fill-rule="evenodd" clip-rule="evenodd" d="M174.849 14.2119C174.849 14.2152 174.849 14.2186 174.849 14.2219L166.997 9.64962C166.997 9.63976 166.997 9.62988 166.997 9.62L174.849 14.2119ZM174.849 14.2119L174.866 14.2216C174.866 16.2349 173.72 17.601 170.872 17.601C168.85 17.601 167.772 17.1156 166.946 16.6842V14.0778C168.159 14.8148 169.524 15.2103 170.906 15.2283C172.052 15.2283 172.389 14.8508 172.389 14.2935C172.389 13.7183 172.052 13.4307 170.417 13.0712C167.704 12.4996 167.005 11.2355 166.997 9.64962L166.946 9.62025C166.946 7.60703 168.311 6.38472 170.957 6.38472C172.12 6.34877 173.265 6.60042 174.327 7.1217V9.63823C173.232 9.09897 172.069 8.72149 170.889 8.72149C169.912 8.72149 169.39 8.99112 169.39 9.62025C169.39 10.1056 169.76 10.4651 171.226 10.8066C173.901 11.4167 174.846 12.3134 174.849 14.2119Z" fill="#787878"/>
<path d="M204.566 6.38135V16.9412H206.824V8.89478L207.769 11.0242L210.971 16.9412H213.806V6.38135H211.549V13.206L210.691 11.2162L208.119 6.38135H204.566Z" fill="#787878"/>
<rect x="187.407" y="6.38135" width="2.63997" height="10.5599" fill="#787878"/>
<path d="M185.427 14.2219C185.427 12.3165 184.409 11.4178 181.518 10.8066C179.937 10.4651 179.537 10.1056 179.537 9.62025C179.537 8.99112 180.101 8.72149 181.155 8.72149C182.427 8.72149 183.682 9.09897 184.863 9.63823V7.1217C183.718 6.60042 182.482 6.34877 181.228 6.38472C178.374 6.38472 176.901 7.60703 176.901 9.62025C176.901 11.22 177.647 12.4963 180.591 13.0715C182.355 13.431 182.718 13.7186 182.718 14.2938C182.718 14.851 182.355 15.2285 181.118 15.2285C179.628 15.2105 178.155 14.8151 176.847 14.0781V16.6845C177.737 17.1159 178.901 17.6012 181.082 17.6012C184.209 17.5833 185.427 16.2351 185.427 14.2219Z" fill="#787878"/>
<path d="M147.807 6.38135V16.9412H152.949L153.747 14.6547H150.325V6.38135H147.807Z" fill="#787878"/>
<path d="M137.907 6.38135V8.66787H140.576V16.9412H142.989V8.66787H145.827V6.38135H137.907Z" fill="#787878"/>
<path fill-rule="evenodd" clip-rule="evenodd" d="M131.012 6.38135H134.242L137.907 16.9412H135.111L134.59 15.1609C133.304 15.5449 131.95 15.5449 130.665 15.1609L130.143 16.9412H127.347L131.012 6.38135ZM131.272 13.0659C131.724 13.1881 132.175 13.2579 132.627 13.2579C133.079 13.2579 133.53 13.2056 133.982 13.0659L132.627 8.45799L131.272 13.0659Z" fill="#787878"/>
<path fill-rule="evenodd" clip-rule="evenodd" d="M158.072 6.38135H161.303L164.967 16.9412H162.171L161.65 15.1609C160.365 15.5449 159.01 15.5449 157.725 15.1609L157.204 16.9412H154.407L158.072 6.38135ZM158.333 13.0659C158.784 13.1881 159.236 13.2579 159.688 13.2579C160.139 13.2579 160.591 13.2056 161.042 13.0659L159.688 8.45799L158.333 13.0659Z" fill="#787878"/>
<path fill-rule="evenodd" clip-rule="evenodd" d="M195.691 6.38135H198.922L202.586 16.9412H199.79L199.269 15.1609C197.984 15.5449 196.629 15.5449 195.344 15.1609L194.823 16.9412H192.026L195.691 6.38135ZM195.952 13.0659C196.403 13.1881 196.855 13.2579 197.306 13.2579C197.758 13.2579 198.209 13.2056 198.661 13.0659L197.306 8.45799L195.952 13.0659Z" fill="#787878"/>
<path d="M250.297 17.4432C246.74 17.4432 243.857 14.5592 243.857 11.0017C243.857 7.4441 246.74 4.56282 250.297 4.56282C251.55 4.56282 252.721 4.92036 253.71 5.54011L250.297 11.0017L256.722 7.29187C256.024 6.17965 255.023 5.2213 253.812 4.49407C252.271 3.57176 250.128 3.00098 247.759 3.00098C244.379 3.00098 241.413 4.22928 239.759 6.06873C238.535 7.42852 237.806 9.13992 237.806 11.0016C237.806 12.8647 238.535 14.5774 239.759 15.9381C241.418 17.7798 244.339 19.001 247.663 19.001C250.987 19.001 253.908 17.7789 255.567 15.9381C255.657 15.8367 255.745 15.7344 255.829 15.6283L255.578 14.6892C254.412 16.3531 252.482 17.4432 250.297 17.4432Z" fill="#787878"/>
<path d="M271.599 18.6136L268.903 8.55386C268.469 6.92823 266.989 5.7334 265.227 5.7334C264.77 5.7334 264.332 5.81506 263.925 5.9629L258.12 8.07392H264.091L265.111 11.8844C264.121 11.0326 262.832 10.5143 261.421 10.5143C258.618 10.5143 256.349 12.3924 256.349 14.7093C256.349 17.0262 258.618 18.9072 261.421 18.9072C263.439 18.9072 265.223 17.9194 266.324 16.4018L266.915 18.6136H271.599ZM263.373 17.0511C262.081 17.0511 261.033 16.004 261.033 14.7093C261.033 13.4164 262.081 12.3683 263.373 12.3683C264.666 12.3683 265.715 13.4164 265.715 14.7093C265.715 16.004 264.666 17.0511 263.373 17.0511Z" fill="#787878"/>
<path d="M282.593 5.73486C282.239 5.73486 281.904 5.81308 281.606 5.95318L277.879 7.6903C277.694 6.58067 276.73 5.73486 275.567 5.73486C275.215 5.73486 274.88 5.81308 274.578 5.95318L270.027 8.07366H273.226V18.6135H277.91V9.24622C277.91 8.59989 278.433 8.07376 279.081 8.07376C279.726 8.07376 280.253 8.59989 280.253 9.24622V18.6135H284.935V8.07366C284.935 6.7811 283.886 5.73496 282.593 5.73496" fill="#787878"/>
<path d="M300.155 12.368C300.155 16.0315 297.186 19.0007 293.523 19.0007C289.858 19.0007 286.887 16.0315 286.887 12.368C286.887 8.70546 289.858 5.73486 293.523 5.73486C297.186 5.73486 300.155 8.70555 300.155 12.368ZM293.798 7.74796C293.589 6.96747 292.787 6.50417 292.007 6.71397C291.228 6.92291 290.762 7.72568 290.971 8.50608L293.246 16.9877C293.457 17.769 294.257 18.2318 295.037 18.0253C295.818 17.8139 296.281 17.0116 296.072 16.2313L293.798 7.74796Z" fill="#787878"/>
<path d="M311.964 5.73486C311.609 5.73486 311.273 5.81308 310.97 5.95318L307.246 7.6903C307.063 6.58067 306.099 5.73486 304.936 5.73486C304.584 5.73486 304.248 5.81308 303.945 5.95318L299.396 8.07366H302.595V18.6135H307.278V9.24622C307.278 8.59989 307.802 8.07376 308.45 8.07376C309.096 8.07376 309.62 8.59989 309.62 9.24622V18.6135H314.305V8.07366C314.305 6.7811 313.255 5.73496 311.964 5.73496" fill="#787878"/>
</svg>
