<svg width="333" height="21" viewBox="0 0 333 21" fill="none" xmlns="http://www.w3.org/2000/svg">
<path fill-rule="evenodd" clip-rule="evenodd" d="M119.045 13.8704C119.045 14.045 119.028 14.2262 118.983 14.383C118.79 15.0386 118.128 15.5939 117.302 15.5939C116.614 15.5939 116.064 15.1908 116.064 14.3402C116.064 13.0392 117.458 12.6798 119.045 12.6885V13.8704ZM121.532 11.6038C121.532 9.45727 120.64 7.56934 117.627 7.56934C116.081 7.56934 114.852 8.01574 114.182 8.41328L114.673 10.1383C115.285 9.74079 116.261 9.41197 117.185 9.41197C118.714 9.4084 118.964 10.3022 118.964 10.8749V11.0103C115.631 11.0047 113.526 12.1907 113.526 14.6075C113.526 16.0836 114.599 17.4671 116.462 17.4671C117.61 17.4671 118.568 16.9963 119.143 16.2429H119.201C119.201 16.2429 119.58 17.8784 121.677 17.2538C121.568 16.5723 121.532 15.8449 121.532 14.9714V11.6038Z" fill="#787878"/>
<path fill-rule="evenodd" clip-rule="evenodd" d="M69.2772 5.24072C69.2772 5.24072 71.4378 14.0453 71.7827 15.4745C72.1852 17.1427 72.9104 17.7559 75.0017 17.343L76.3505 11.8841C76.693 10.5272 76.922 9.56116 77.1416 8.18176H77.1805C77.3343 9.57533 77.5549 10.5316 77.8364 11.8885C77.8364 11.8885 78.3853 14.3663 78.6669 15.668C78.9494 16.9687 79.7336 17.7896 81.7817 17.343L84.9972 5.24072H82.4013L81.3036 10.4729C81.0078 11.9955 80.7414 13.1863 80.5341 14.5798H80.4977C80.3095 13.2 80.0717 12.0571 79.771 10.5736L78.6285 5.24072H75.923L74.7015 10.4387C74.3551 12.0185 74.0313 13.2943 73.8249 14.6394H73.788C73.5767 13.3724 73.2952 11.7693 72.992 10.2403C72.992 10.2403 72.2648 6.52288 72.0102 5.24072" fill="#787878"/>
<path fill-rule="evenodd" clip-rule="evenodd" d="M89.9324 13.8704C89.9324 14.045 89.9181 14.2262 89.8705 14.383C89.678 15.0386 89.0171 15.5939 88.1908 15.5939C87.5012 15.5939 86.9537 15.1908 86.9537 14.3402C86.9537 13.0392 88.3468 12.6798 89.9324 12.6885V13.8704ZM92.4195 11.6038C92.4195 9.45727 91.5279 7.56934 88.5155 7.56934C86.9679 7.56934 85.7407 8.01574 85.0699 8.41328L85.561 10.1383C86.1734 9.74079 87.1486 9.41197 88.0729 9.41197C89.6021 9.4084 89.8521 10.3022 89.8521 10.8749V11.0103C86.5194 11.0047 84.4149 12.1907 84.4149 14.6075C84.4149 16.0836 85.4867 17.4671 87.3501 17.4671C88.4967 17.4671 89.4561 16.9963 90.0308 16.2429H90.0868C90.0868 16.2429 90.468 17.8784 92.566 17.2538C92.4551 16.5723 92.4195 15.8449 92.4195 14.9714V11.6038Z" fill="#787878"/>
<path fill-rule="evenodd" clip-rule="evenodd" d="M96.6416 14.871V5.24072H94.3127V17.4674H96.6416" fill="#787878"/>
<path fill-rule="evenodd" clip-rule="evenodd" d="M129.828 5.24072V14.1116C129.828 15.3324 130.064 16.1902 130.571 16.714C131.012 17.1708 131.74 17.4674 132.612 17.4674C133.355 17.4674 134.085 17.3305 134.428 17.2057L134.396 15.2975C134.14 15.3587 133.845 15.4077 133.442 15.4077C132.588 15.4077 132.302 14.8756 132.302 13.7771V10.3849H134.486V8.08392H132.302V5.24072" fill="#787878"/>
<path fill-rule="evenodd" clip-rule="evenodd" d="M123.424 8.3575V17.4674H125.918V12.8023C125.918 12.5506 125.933 12.3308 125.972 12.13C126.158 11.1528 126.891 10.529 127.945 10.529C128.234 10.529 128.442 10.5603 128.664 10.5931V8.20816C128.477 8.16899 128.349 8.15186 128.115 8.15186C127.183 8.15186 126.124 8.7629 125.68 10.0756H125.612V8.3575" fill="#787878"/>
<path fill-rule="evenodd" clip-rule="evenodd" d="M98.3883 8.3575V17.4674H100.932V12.1247C100.932 11.8745 100.961 11.6086 101.052 11.3794C101.263 10.8414 101.778 10.2112 102.598 10.2112C103.624 10.2112 104.105 11.0553 104.105 12.2755V17.4674H106.646V12.06C106.646 11.8211 106.679 11.5337 106.752 11.3212C106.961 10.7092 107.515 10.2112 108.278 10.2112C109.32 10.2112 109.819 11.0416 109.819 12.4757V17.4674H112.362V12.1021C112.362 9.27162 110.885 8.15186 109.219 8.15186C108.48 8.15186 107.898 8.33155 107.371 8.64637C106.928 8.91126 106.532 9.28631 106.185 9.78083H106.148C105.746 8.79914 104.8 8.15186 103.567 8.15186C101.984 8.15186 101.273 8.93231 100.841 9.59526H100.803V8.3575" fill="#787878"/>
<path fill-rule="evenodd" clip-rule="evenodd" d="M148.166 6.98715C148.664 6.98715 149.076 6.7343 149.131 6.40801L149.624 0.977396C149.624 0.441045 148.979 0.000488281 148.167 0.000488281C147.358 0.000488281 146.713 0.441045 146.713 0.977396L147.205 6.40801C147.259 6.7343 147.671 6.98715 148.169 6.98715" fill="#787878"/>
<path fill-rule="evenodd" clip-rule="evenodd" d="M144.797 8.72246C145.036 8.27097 145.018 7.76207 144.764 7.53711L140.354 4.17677C139.895 3.88969 139.208 4.23627 138.816 4.9717C138.426 5.70557 138.494 6.52608 138.952 6.8142L143.836 9.28356C144.143 9.40727 144.558 9.1703 144.798 8.72038" fill="#787878"/>
<path fill-rule="evenodd" clip-rule="evenodd" d="M150.955 8.72037C151.197 9.1703 151.61 9.40727 151.917 9.28356L156.802 6.81417C157.262 6.52604 157.328 5.70552 156.936 4.97165C156.546 4.23673 155.858 3.88962 155.399 4.1767L150.988 7.53708C150.736 7.76205 150.719 8.27096 150.957 8.72246" fill="#787878"/>
<path fill-rule="evenodd" clip-rule="evenodd" d="M148.166 13.9736C148.664 13.9736 149.076 14.2265 149.131 14.5527L149.624 19.9826C149.624 20.5188 148.979 20.9603 148.167 20.9603C147.358 20.9603 146.713 20.5188 146.713 19.9826L147.205 14.5527C147.259 14.2265 147.671 13.9736 148.169 13.9736" fill="#787878"/>
<path fill-rule="evenodd" clip-rule="evenodd" d="M150.955 11.6592C151.197 11.2072 151.61 10.9724 151.917 11.0955L156.802 13.5642C157.262 13.8529 157.328 14.6733 156.936 15.4082C156.546 16.1415 155.858 16.4897 155.399 16.2026L150.988 12.8424C150.736 12.6164 150.719 12.1081 150.957 11.6571" fill="#787878"/>
<path fill-rule="evenodd" clip-rule="evenodd" d="M144.797 11.6578C145.036 12.1088 145.018 12.6167 144.764 12.8433L140.354 16.2024C139.895 16.4895 139.208 16.1428 138.816 15.4094C138.426 14.6745 138.494 13.8528 138.952 13.5642L143.836 11.0961C144.143 10.9714 144.558 11.2073 144.798 11.6594" fill="#787878"/>
<path fill-rule="evenodd" clip-rule="evenodd" d="M239.938 15.5945C236.281 18.5359 230.979 20.1004 226.413 20.1004C220.014 20.1004 214.253 17.5227 209.892 13.2314C209.549 12.8944 209.855 12.434 210.266 12.695C214.971 15.6788 220.788 17.4757 226.797 17.4757C230.851 17.4757 235.306 16.5588 239.406 14.6637C240.025 14.3775 240.543 15.1078 239.938 15.5945Z" fill="#787878"/>
<path fill-rule="evenodd" clip-rule="evenodd" d="M241.685 14.1923C241.206 13.6213 238.518 13.9216 237.311 14.056C236.945 14.0969 236.888 13.7999 237.218 13.5842C239.362 12.1827 242.875 12.5875 243.283 13.0564C243.695 13.5299 243.175 16.8078 241.166 18.3722C240.857 18.6129 240.563 18.4846 240.7 18.1666C241.152 17.116 242.164 14.7633 241.685 14.1923Z" fill="#787878"/>
<path fill-rule="evenodd" clip-rule="evenodd" d="M236.847 3.22575V1.76564C236.848 1.5434 237.018 1.39525 237.224 1.3957L243.897 1.39502C244.11 1.39502 244.281 1.54747 244.282 1.76383L244.281 3.01616C244.28 3.2262 244.099 3.50038 243.779 3.93536L240.323 8.77552C241.606 8.74616 242.963 8.93429 244.129 9.57706C244.391 9.72183 244.462 9.93683 244.483 10.1471V11.705C244.483 11.9198 244.243 12.1682 243.991 12.039C241.937 10.9839 239.212 10.8685 236.941 12.0517C236.709 12.173 236.466 11.9281 236.466 11.7134V10.2322C236.466 9.99533 236.471 9.58993 236.714 9.22857L240.719 3.59411L237.232 3.59343C237.019 3.59343 236.848 3.44437 236.847 3.22575Z" fill="#787878"/>
<path fill-rule="evenodd" clip-rule="evenodd" d="M214.126 12.0839H212.222C212.041 12.072 211.896 11.9352 211.882 11.761L211.883 1.95482C211.883 1.75868 212.047 1.60178 212.25 1.60178L214.024 1.60134C214.209 1.61088 214.358 1.75175 214.37 1.93055V3.21096H214.406C214.868 1.97281 215.739 1.39502 216.912 1.39502C218.103 1.39502 218.85 1.97281 219.383 3.21096C219.845 1.97281 220.894 1.39502 222.014 1.39502C222.813 1.39502 223.684 1.72509 224.218 2.46803C224.822 3.29332 224.698 4.49029 224.698 5.54271L224.696 11.7309C224.696 11.9268 224.532 12.0839 224.329 12.0839H222.427C222.236 12.0716 222.085 11.9196 222.085 11.7317L222.085 6.53314C222.085 6.1205 222.12 5.08867 222.031 4.69661C221.889 4.03625 221.463 3.85052 220.912 3.85052C220.449 3.85052 219.969 4.16 219.774 4.65543C219.578 5.15065 219.596 5.97594 219.596 6.53314V11.7309C219.596 11.9268 219.432 12.0839 219.229 12.0839H217.327C217.136 12.0716 216.985 11.9196 216.985 11.7317L216.983 6.53314C216.983 5.43955 217.161 3.82993 215.81 3.82993C214.441 3.82993 214.494 5.39815 214.494 6.53314L214.494 11.7309C214.494 11.9268 214.329 12.0839 214.126 12.0839Z" fill="#787878"/>
<path fill-rule="evenodd" clip-rule="evenodd" d="M250.344 2.92223C248.954 2.92223 248.866 4.89887 248.866 6.13164C248.866 7.36464 248.849 10.0005 250.327 10.0005C251.787 10.0005 251.857 7.87476 251.857 6.57814C251.857 5.72801 251.822 4.70777 251.576 3.89983C251.364 3.19839 250.942 2.92223 250.344 2.92223ZM250.327 0.860352C253.124 0.860352 254.637 3.36854 254.637 6.55696C254.637 9.6389 252.966 12.0837 250.327 12.0837C247.582 12.0837 246.086 9.57527 246.086 6.4507C246.086 3.30469 247.599 0.860352 250.327 0.860352Z" fill="#787878"/>
<path fill-rule="evenodd" clip-rule="evenodd" d="M258.004 12.0839H256.059C255.864 12.0716 255.709 11.9196 255.709 11.7317L255.706 1.92188C255.722 1.74265 255.884 1.60178 256.081 1.60178L257.891 1.60134C258.062 1.60979 258.202 1.72379 258.238 1.87593V3.37589H258.275C258.822 2.03458 259.587 1.39502 260.935 1.39502C261.809 1.39502 262.666 1.7045 263.212 2.5506C263.723 3.33471 263.723 4.65543 263.723 5.60447V11.7749C263.701 11.9489 263.541 12.0839 263.349 12.0839H261.392C261.211 12.0724 261.065 11.9426 261.044 11.7749V6.45057C261.044 5.37756 261.172 3.80934 259.823 3.80934C259.35 3.80934 258.912 4.11882 258.694 4.59345C258.421 5.19183 258.384 5.79021 258.384 6.45057V11.7309C258.381 11.9268 258.212 12.0839 258.004 12.0839Z" fill="#787878"/>
<path fill-rule="evenodd" clip-rule="evenodd" d="M234.268 11.8211C234.14 11.9362 233.955 11.9439 233.81 11.8663C233.167 11.3306 233.051 11.083 232.699 10.5734C231.635 11.6583 230.882 11.9836 229.504 11.9836C227.872 11.9836 226.602 10.9757 226.602 8.95985C226.602 7.38484 227.454 6.31401 228.669 5.78893C229.721 5.32679 231.19 5.24295 232.314 5.11685V4.86488C232.314 4.40296 232.35 3.85698 232.079 3.458C231.843 3.10105 231.389 2.95405 230.99 2.95405C230.251 2.95405 229.594 3.33322 229.432 4.11907C229.399 4.29381 229.271 4.46678 229.096 4.47558L227.217 4.27224C227.059 4.23637 226.882 4.10895 226.928 3.86666C227.36 1.58524 229.418 0.895996 231.263 0.895996C232.205 0.895996 233.438 1.14797 234.182 1.86208C235.125 2.74411 235.034 3.91991 235.034 5.20091V8.22351C235.034 9.1326 235.411 9.53158 235.766 10.0214C235.889 10.1979 235.917 10.4079 235.759 10.5368C235.363 10.8689 234.66 11.4807 234.273 11.8253L234.268 11.8211ZM232.314 7.09093C232.314 7.84708 232.332 8.47691 231.951 9.14898C231.643 9.69497 231.153 10.0308 230.609 10.0308C229.866 10.0308 229.431 9.46368 229.431 8.62391C229.431 6.97166 230.912 6.67105 232.314 6.67105V7.09093Z" fill="#787878"/>
<path fill-rule="evenodd" clip-rule="evenodd" d="M208.859 11.8211C208.73 11.9362 208.545 11.9439 208.401 11.8663C207.757 11.3306 207.641 11.083 207.289 10.5734C206.226 11.6583 205.472 11.9836 204.094 11.9836C202.462 11.9836 201.193 10.9757 201.193 8.95985C201.193 7.38484 202.045 6.31401 203.26 5.78893C204.312 5.32679 205.78 5.24295 206.904 5.11685V4.86488C206.904 4.40296 206.941 3.85698 206.669 3.458C206.433 3.10105 205.979 2.95405 205.581 2.95405C204.842 2.95405 204.184 3.33322 204.023 4.11907C203.989 4.29381 203.862 4.46678 203.686 4.47558L201.807 4.27224C201.649 4.23637 201.472 4.10895 201.518 3.86666C201.95 1.58524 204.008 0.895996 205.853 0.895996C206.796 0.895996 208.029 1.14797 208.772 1.86208C209.715 2.74411 209.624 3.91991 209.624 5.20091V8.22351C209.624 9.1326 210.001 9.53158 210.356 10.0214C210.479 10.1979 210.507 10.4079 210.35 10.5368C209.954 10.8689 209.25 11.4807 208.863 11.8253L208.859 11.8211ZM206.904 7.09093C206.904 7.84708 206.923 8.47691 206.542 9.14898C206.234 9.69497 205.744 10.0308 205.2 10.0308C204.457 10.0308 204.021 9.46368 204.021 8.62391C204.021 6.97166 205.502 6.67105 206.904 6.67105V7.09093Z" fill="#787878"/>
</svg>
